HIERARCHY
ROOT root
{
	OFFSET 0.000000 0.000000 0.000000
	CHANNELS 6 Xposition Yposition Zposition Zrotation Yrotation Xrotation
	JOINT lhip
	{
		OFFSET 0.058581 -0.082280 -0.017664
		CHANNELS 3 Zrotation Yrotation Xrotation
		JOINT lknee
		{
			OFFSET 0.043451 -0.386469 0.008037
			CHANNELS 3 Zrotation Yrotation Xrotation
			JOINT lankle
			{
				OFFSET -0.014790 -0.426874 -0.037428
				CHANNELS 3 Zrotation Yrotation Xrotation
				JOINT ltoe
				{
					OFFSET 0.041054 -0.060286 0.122042
					CHANNELS 3 Zrotation Yrotation Xrotation
					End Site
					{
						OFFSET 0.000000 0.000000 0.000000
					}
				}
			}
		}
	}
	JOINT rhip
	{
		OFFSET -0.060310 -0.090513 -0.013543
		CHANNELS 3 Zrotation Yrotation Xrotation
		JOINT rknee
		{
			OFFSET -0.043257 -0.383688 -0.004843
			CHANNELS 3 Zrotation Yrotation Xrotation
			JOINT rankle
			{
				OFFSET 0.019056 -0.420046 -0.034562
				CHANNELS 3 Zrotation Yrotation Xrotation
				JOINT rtoe
				{
					OFFSET -0.034840 -0.062106 0.130323
					CHANNELS 3 Zrotation Yrotation Xrotation
					End Site
					{
						OFFSET 0.000000 0.000000 0.000000
					}
				}
			}
		}
	}
	JOINT lowerback
	{
		OFFSET 0.004439 0.124404 -0.038385
		CHANNELS 3 Zrotation Yrotation Xrotation
		JOINT upperback
		{
			OFFSET 0.004488 0.137956 0.026820
			CHANNELS 3 Zrotation Yrotation Xrotation
			JOINT chest
			{
				OFFSET -0.002265 0.056032 0.002855
				CHANNELS 3 Zrotation Yrotation Xrotation
				JOINT lowerneck
				{
					OFFSET -0.013390 0.211636 -0.033468
					CHANNELS 3 Zrotation Yrotation Xrotation
					JOINT upperneck
					{
						OFFSET 0.010113 0.088937 0.050410
						CHANNELS 3 Zrotation Yrotation Xrotation
						End Site
						{
							OFFSET 0.000000 0.000000 0.000000
						}
					}
				}
				JOINT lclavicle
				{
					OFFSET 0.071702 0.114000 -0.018898
					CHANNELS 3 Zrotation Yrotation Xrotation
					JOINT lshoulder
					{
						OFFSET 0.122921 0.045205 -0.019046
						CHANNELS 3 Zrotation Yrotation Xrotation
						JOINT lelbow
						{
							OFFSET 0.255332 -0.015649 -0.022946
							CHANNELS 3 Zrotation Yrotation Xrotation
							JOINT lwrist
							{
								OFFSET 0.265709 0.012698 -0.007375
								CHANNELS 3 Zrotation Yrotation Xrotation
								End Site
								{
									OFFSET 0.000000 0.000000 0.000000
								}
							}
						}
					}
				}
				JOINT rclavicle
				{
					OFFSET -0.082954 0.112472 -0.023707
					CHANNELS 3 Zrotation Yrotation Xrotation
					JOINT rshoulder
					{
						OFFSET -0.113228 0.046853 -0.008472
						CHANNELS 3 Zrotation Yrotation Xrotation
						JOINT relbow
						{
							OFFSET -0.260127 -0.014369 -0.031269
							CHANNELS 3 Zrotation Yrotation Xrotation
							JOINT rwrist
							{
								OFFSET -0.269108 0.006794 -0.006027
								CHANNELS 3 Zrotation Yrotation Xrotation
								End Site
								{
									OFFSET 0.000000 0.000000 0.000000
								}
							}
						}
					}
				}
			}
		}
	}
}
MOTION
Frames: 14
Frame Time: 0.033333
-0.439702 1.142165 1.045129 53.728772 -3.452373 83.152622 4.534658 4.482249 -6.602973 -20.193879 -16.440282 39.110469 -11.284097 5.326553 4.880860 0.000000 -0.000000 0.000000 -10.445093 -6.093614 2.395762 7.961847 10.660068 31.287141 15.271595 -3.296884 -4.348542 0.000000 -0.000000 0.000000 2.743063 2.897433 7.438096 7.260215 -6.639774 -5.129862 6.047920 2.118253 -4.841049 5.866372 12.802008 -13.884618 5.886601 11.035879 -12.693815 21.543464 -14.901699 -22.036557 17.850799 -6.534936 -26.312879 1.068349 -13.742436 -53.325979 21.901216 -13.227466 -27.892891 -16.133892 15.481048 -18.126070 -11.321592 22.309130 -15.250767 -12.956508 36.377103 -18.532012 -9.988140 15.152490 0.117858 
-0.424456 1.146413 1.044743 45.188678 -5.213803 83.808464 5.127678 4.036297 -6.974740 -18.167494 -14.113163 37.411964 -8.780367 7.786817 2.454355 0.000000 -0.000000 0.000000 -10.919190 -7.141218 0.910761 6.494700 8.092665 29.949518 13.134800 -6.803843 -5.812519 0.000000 -0.000000 0.000000 1.334770 4.436196 6.983270 8.511226 -6.412140 -4.832059 6.882063 2.762751 -4.301560 3.885382 15.763189 -12.670124 5.382877 10.236004 -12.083417 26.962385 -12.712955 -22.900880 19.682676 -5.982607 -29.961688 0.190150 -11.773741 -52.719714 21.394217 -13.917640 -28.385183 -15.748171 14.615298 -16.921837 -3.914120 24.120570 -11.992028 -13.551470 37.381275 -15.348683 -6.625915 14.382589 -1.095703 
-0.409293 1.150367 1.035781 36.956562 -7.033262 84.629147 6.390176 4.258862 -6.706990 -15.483096 -12.845287 33.591042 -7.352148 10.304786 0.154224 0.000000 -0.000000 0.000000 -12.512784 -8.057117 1.347721 3.566966 5.819554 26.795132 10.700805 -9.001617 -10.718655 0.000000 -0.000000 0.000000 0.498770 5.598760 7.273049 8.945078 -6.043595 -4.968730 7.166410 3.531859 -3.596059 2.075633 19.322056 -12.332464 4.809801 8.624462 -11.110724 30.956123 -10.211526 -23.859828 22.231556 -5.748302 -32.713949 -0.590131 -11.004088 -50.417911 19.744122 -14.765810 -27.719405 -14.029794 13.969179 -15.650180 2.487451 24.902726 -8.905079 -13.281226 38.467471 -12.043559 -4.394970 14.017097 -1.179881 
-0.393756 1.157988 1.019784 29.933934 -8.623043 86.685470 7.480825 3.699118 -7.806355 -12.399648 -12.013735 29.165777 -6.493889 13.315479 -1.534822 0.000000 -0.000000 0.000000 -15.226382 -8.123953 0.167327 3.978258 8.725284 23.682920 8.605245 -9.522456 -17.086205 0.000000 -0.000000 0.000000 0.070308 6.746644 5.975384 9.389943 -5.551862 -3.815196 7.033349 3.456003 -3.624166 -0.535503 21.851622 -11.682776 4.735775 6.894976 -11.330863 32.564436 -7.821230 -24.136724 25.564540 -5.226507 -33.763750 -0.945412 -11.813019 -48.965849 18.085451 -16.206048 -27.451790 -10.526115 13.609247 -14.022190 6.347637 24.956329 -6.094562 -12.593011 39.001930 -10.081797 -1.831604 13.935959 0.436280 
-0.377422 1.166882 1.000768 24.218522 -9.356869 88.099941 9.121760 3.400840 -8.275212 -9.674867 -13.961223 25.069984 -6.450708 15.340179 -3.353081 0.000000 -0.000000 0.000000 -17.866966 -7.479861 -2.993749 5.311644 11.704971 25.792561 7.963984 -7.086223 -22.946132 0.000000 -0.000000 0.000000 0.545102 6.758534 6.267536 9.627107 -4.781401 -3.594040 6.418308 4.688249 -3.018589 -1.628394 24.276127 -11.583247 4.246079 3.992476 -11.562516 32.878208 -6.045627 -23.894141 28.671893 -4.740035 -35.154506 0.495178 -14.738639 -50.443803 17.050180 -16.858517 -28.932595 -5.435546 11.983066 -13.343992 9.415332 23.420353 -3.456918 -10.969988 39.262896 -7.971123 -1.971214 14.378141 2.609736 
-0.360852 1.176676 0.980261 19.740112 -9.652522 88.690401 11.196093 3.017671 -8.145716 -7.841183 -17.250307 21.130586 -5.805800 16.422325 -5.024289 0.000000 -0.000000 0.000000 -19.854218 -6.684836 -6.969846 6.803864 12.452737 30.693500 7.036879 -5.877458 -28.199334 0.000000 -0.000000 0.000000 0.799920 6.435771 7.688038 10.256131 -3.584388 -3.011780 6.433851 5.399633 -3.140422 -1.971614 26.430843 -11.242901 3.704272 2.053389 -11.457236 31.199695 -4.374255 -22.869168 31.139825 -4.299917 -35.026369 4.506651 -19.607037 -53.489106 17.981514 -16.279031 -32.317080 0.083413 10.949390 -12.228594 11.209115 20.454167 -1.189235 -10.888532 36.871297 -8.240763 -2.465761 14.780836 4.849384 
-0.343414 1.185858 0.959627 16.911772 -9.475831 88.576026 13.526859 2.623738 -8.466710 -7.433260 -20.786387 19.102673 -6.781581 15.989885 -6.379995 0.000000 -0.000000 0.000000 -20.241683 -5.875053 -10.348074 7.030933 13.551180 36.270844 6.124355 -6.265989 -32.920989 0.000000 -0.000000 0.000000 0.764777 5.765866 9.921509 11.058676 -2.763326 -3.142242 6.943074 5.944363 -2.544572 -1.529447 28.156914 -11.319687 3.429340 1.308006 -11.626000 29.368203 -2.197939 -22.459020 32.897466 -4.580851 -35.035384 9.427888 -24.251861 -55.847837 19.743024 -15.553253 -35.886831 5.764804 9.106615 -11.578322 12.765958 17.111315 0.547398 -10.599942 31.650221 -10.299589 -4.621236 14.447229 3.950528 
-0.322455 1.193524 0.936670 16.264475 -9.878873 88.273029 14.801671 1.803719 -10.518864 -9.361323 -23.571283 20.127252 -8.202956 13.212953 -7.349955 0.000000 -0.000000 0.000000 -21.457823 -5.241530 -12.999061 7.525784 14.591280 42.204242 5.778891 -7.279909 -36.787888 0.000000 -0.000000 0.000000 0.407609 5.454081 10.729737 12.247667 -3.098543 -2.354641 7.310165 5.026762 -2.412401 -0.703160 30.108021 -9.584757 2.941804 0.940074 -11.368290 27.386047 -1.320573 -21.359601 34.591425 -3.643120 -35.248168 13.768674 -27.071902 -58.209025 20.339041 -15.955199 -37.089232 9.660568 7.984677 -8.675018 15.330495 13.702801 0.547875 -11.920121 22.417346 -16.485372 -7.157223 13.267662 1.405208 
-0.297059 1.198586 0.914620 17.124121 -10.352630 87.242555 14.434452 0.965047 -12.968574 -11.786653 -24.084646 25.235337 -8.192105 12.044286 -12.295789 0.000000 -0.000000 0.000000 -23.301342 -5.034836 -13.139170 7.506762 14.903889 46.098447 6.171061 -8.200713 -40.135354 0.000000 -0.000000 0.000000 0.538648 5.675527 12.020172 13.339398 -3.341070 -2.664191 7.463672 4.222521 -1.478322 0.011890 31.069157 -8.909330 1.582437 0.465973 -9.969427 25.779831 -0.165311 -20.522529 35.211310 -4.386138 -36.318407 16.496688 -28.286092 -59.538235 23.833031 -15.217033 -38.691508 13.259274 4.635749 -8.279520 17.897030 9.681509 0.393931 -11.892494 12.033288 -23.594680 -10.352880 10.043440 -1.211643 
-0.268515 1.201349 0.895175 18.453492 -10.285840 86.245316 13.404681 1.804680 -16.475067 -15.487762 -21.304631 34.360281 -6.132648 11.373631 -18.370277 0.000000 -0.000000 0.000000 -24.426895 -5.048392 -12.407069 7.744776 16.321169 48.909164 6.799380 -10.201563 -42.462437 0.000000 -0.000000 0.000000 1.210849 5.885316 13.045861 14.749801 -3.748858 -3.434957 7.786589 3.654757 -0.547369 0.326787 31.085125 -6.791917 1.456466 1.643730 -10.001568 24.213381 0.447952 -19.224829 35.561660 -4.490342 -36.489571 17.267127 -29.310463 -58.755951 26.703329 -13.351851 -40.539271 16.575033 1.346222 -8.317948 18.726560 4.390734 -0.462391 -9.633489 2.240248 -29.992548 -11.652824 6.111666 -4.336358 
-0.239607 1.203241 0.878031 19.403295 -10.209366 85.563021 11.603676 2.903859 -19.534936 -17.702047 -18.111505 40.681022 -2.682390 13.268011 -23.617914 0.000000 -0.000000 0.000000 -25.528715 -4.801268 -11.694049 7.638795 17.307453 50.860104 7.502104 -12.491212 -44.126715 0.000000 -0.000000 0.000000 1.401573 6.263878 13.862909 16.348424 -3.839891 -4.879945 8.492473 3.115309 1.109118 1.440876 31.020236 -5.412498 1.177006 2.654148 -8.859944 23.311024 1.890710 -17.394137 34.805829 -4.250938 -36.232586 16.990233 -30.325643 -56.403301 27.688977 -11.577220 -40.787691 19.058815 -3.037978 -8.047196 21.595745 -1.367786 -0.247110 -8.991100 -3.365876 -35.404577 -10.888419 1.868102 -8.680265 
-0.211952 1.205645 0.864102 20.318658 -10.421889 85.139663 9.265118 4.511726 -21.907180 -19.062449 -18.276137 46.401037 -0.356085 12.143730 -27.613970 0.000000 -0.000000 0.000000 -26.527185 -5.576347 -10.740949 6.116721 18.889309 51.462630 7.763097 -13.890590 -44.503807 0.000000 -0.000000 0.000000 1.670232 6.382797 14.326821 17.471026 -4.397226 -5.962364 8.881156 2.018020 2.812556 2.522639 31.478867 -3.107183 1.581073 4.302890 -9.159973 22.726031 4.199201 -15.194473 33.457952 -2.947771 -35.999807 16.501380 -32.422478 -53.086345 27.373685 -10.963554 -41.281486 20.322833 -8.561867 -9.156293 28.187794 -6.386340 0.144235 -10.568482 -3.667607 -37.962409 -8.189836 -0.144589 -10.779355 
-0.186420 1.210029 0.854701 20.955121 -10.748124 85.215254 7.903640 3.669664 -24.631554 -21.565165 -16.856046 51.424045 1.009941 11.918720 -29.886525 0.000000 -0.000000 0.000000 -27.509175 -4.910817 -9.910596 4.816907 19.852072 51.166581 8.307219 -15.442692 -44.571859 0.000000 -0.000000 0.000000 1.433051 6.239589 14.632697 18.693557 -5.512480 -6.786380 9.494986 0.557624 4.658356 4.238458 31.984416 -1.690366 0.861686 6.422194 -7.858256 22.421203 7.878781 -14.115399 31.096404 -2.077462 -35.720960 15.965768 -35.088281 -49.577424 27.274059 -11.270458 -41.501442 21.192044 -13.780323 -10.039049 35.883632 -10.244721 2.450144 -11.909205 -1.762656 -36.311334 -9.457042 0.357859 -10.590750 
-0.164687 1.214684 0.849065 21.574221 -11.269441 85.858234 6.786633 2.128543 -26.646752 -21.574301 -13.529311 52.860938 2.345529 11.521738 -31.420137 0.000000 -0.000000 0.000000 -28.414057 -3.702087 -9.405108 2.973945 19.824723 50.041098 8.522606 -17.242862 -44.068192 0.000000 -0.000000 0.000000 1.186025 5.953620 14.033150 19.608108 -6.706811 -6.513423 9.794746 -0.517847 5.584502 5.973011 32.560202 2.164661 0.678155 7.961052 -8.537119 21.813271 10.752252 -11.998339 28.305074 -1.439412 -35.808498 18.029801 -37.208422 -49.234701 26.866684 -10.987198 -41.779994 21.520292 -18.125511 -8.850586 44.941027 -13.361385 4.909545 -13.067270 -0.485752 -31.193706 -9.622081 2.291978 -8.866100 
